<?xml version="1.0" standalone="no"?>
<!DOCTYPE svg PUBLIC "-//W3C//DTD SVG 20010904//EN"
 "http://www.w3.org/TR/2001/REC-SVG-20010904/DTD/svg10.dtd">
<svg version="1.0" xmlns="http://www.w3.org/2000/svg"
 width="500.000000pt" height="500.000000pt" viewBox="0 0 500.000000 500.000000"
 preserveAspectRatio="xMidYMid meet">
<metadata>
Created by potrace 1.16, written by Peter Selinger 2001-2019
</metadata>
<g transform="translate(0.000000,500.000000) scale(0.100000,-0.100000)"
fill="#000000" stroke="none">
<path d="M2154 4322 c-7 -4 -42 -305 -89 -757 -74 -713 -77 -758 -72 -915 l6
-165 -405 -180 c-223 -99 -410 -185 -415 -192 -10 -11 489 -804 510 -811 4 -1
62 23 127 55 l119 58 31 90 c17 50 38 105 48 123 16 32 15 52 -5 52 -20 0
-208 -93 -203 -101 2 -5 20 1 39 11 19 11 35 17 35 14 0 -3 24 8 54 25 71 41
78 39 31 -9 -23 -24 -33 -40 -25 -40 9 0 11 -3 5 -8 -10 -7 -12 -11 -27 -79
-9 -38 -15 -44 -78 -77 -38 -20 -72 -41 -75 -46 -3 -6 -17 -10 -30 -10 -13 0
-28 -8 -33 -17 -8 -14 -14 -8 -35 33 -14 28 -32 56 -41 63 -9 7 -13 18 -9 24
3 6 1 7 -5 3 -7 -4 -12 -1 -12 8 0 8 -8 20 -17 25 -10 6 -14 11 -10 11 4 0 -6
20 -23 44 -16 25 -30 47 -30 51 0 4 -6 13 -12 20 -30 33 -38 45 -38 55 0 5 -5
10 -11 10 -5 0 -7 5 -4 10 3 6 1 10 -4 10 -6 0 -11 5 -11 10 0 6 -25 46 -55
90 -31 45 -53 86 -49 92 4 7 3 8 -4 4 -11 -6 -16 6 -13 27 0 4 -3 7 -7 7 -9 0
-96 129 -91 135 2 2 18 5 34 8 36 6 199 86 192 94 -3 3 -23 -4 -44 -15 -110
-60 -191 -81 -200 -54 -3 7 4 12 16 12 11 0 22 4 25 9 3 5 17 12 31 15 14 4
64 25 110 47 47 22 87 40 90 39 3 0 27 11 54 25 27 13 112 51 188 84 76 33
165 74 198 91 33 16 65 30 72 30 22 0 27 45 24 220 -1 96 2 213 8 260 6 47 17
157 26 245 8 88 22 223 30 300 43 387 83 800 79 806 -9 15 95 19 451 19 l375
-1 -11 -21 c-7 -14 -8 -23 -1 -27 6 -3 11 -32 11 -64 0 -31 4 -72 10 -90 6
-17 13 -68 16 -112 2 -44 9 -129 15 -190 5 -60 13 -159 16 -218 4 -63 10 -103
15 -95 5 7 8 -29 8 -82 -1 -131 0 -142 9 -136 5 3 9 -37 10 -89 0 -51 5 -102
10 -112 5 -10 10 -54 10 -97 0 -44 6 -108 13 -142 10 -49 10 -78 1 -131 -6
-37 -13 -102 -14 -143 -2 -68 0 -76 20 -85 12 -5 22 -13 22 -16 0 -4 26 -19
58 -34 31 -16 68 -36 82 -45 14 -9 30 -15 36 -13 6 2 17 -3 24 -12 7 -8 23
-15 36 -15 13 0 24 -4 24 -10 0 -5 9 -10 21 -10 13 0 18 -4 13 -12 -5 -7 -2
-9 8 -5 9 3 32 -6 52 -19 20 -14 36 -22 36 -19 0 2 29 -11 64 -30 35 -19 66
-31 70 -28 3 3 8 -2 12 -11 3 -9 13 -16 21 -16 9 0 22 -8 30 -17 8 -10 12 -12
8 -5 -9 17 10 15 25 -3 7 -9 15 -13 18 -10 3 3 14 -2 24 -12 10 -9 18 -13 18
-9 0 4 9 2 21 -4 14 -8 17 -15 11 -23 -6 -7 -22 -34 -37 -62 -16 -27 -31 -52
-34 -55 -6 -5 -13 -17 -59 -99 -14 -25 -37 -64 -52 -86 -15 -22 -30 -50 -34
-62 -4 -13 -12 -23 -17 -23 -6 0 -8 -4 -5 -9 3 -5 -1 -14 -9 -21 -8 -7 -15
-19 -15 -26 0 -8 -3 -14 -8 -14 -4 0 -14 -15 -21 -33 -8 -17 -22 -43 -31 -57
-9 -14 -30 -45 -46 -70 -16 -25 -40 -66 -53 -91 -24 -48 -50 -56 -76 -24 -5 6
-27 18 -47 25 -21 8 -38 18 -38 22 0 4 -7 8 -16 8 -9 0 -14 6 -11 13 4 10 -2
13 -19 9 -19 -3 -24 0 -24 17 0 12 -11 54 -25 93 -30 85 -31 96 -7 75 10 -10
22 -14 27 -10 4 5 5 2 1 -5 -4 -6 -2 -12 4 -12 6 0 8 -5 4 -12 -4 -7 -3 -8 5
-4 6 4 8 12 5 18 -4 6 0 6 13 -1 11 -6 23 -7 27 -4 3 3 6 0 6 -7 0 -7 3 -11 6
-7 4 3 13 -1 21 -9 16 -16 34 -15 35 1 1 6 -42 33 -95 60 -111 58 -133 55 -99
-11 11 -22 30 -76 43 -122 l24 -84 100 -53 c55 -30 107 -57 116 -60 21 -8 495
791 480 809 -6 7 -177 93 -382 191 l-371 180 7 160 c6 145 2 204 -39 635 -26
261 -58 599 -72 750 -14 151 -27 281 -29 288 -5 13 -830 18 -851 4z m1126
-1927 c0 -3 -2 -5 -5 -5 -3 0 -5 2 -5 5 0 3 2 5 5 5 3 0 5 -2 5 -5z m30 -20
c0 -3 -2 -5 -5 -5 -3 0 -5 2 -5 5 0 3 2 5 5 5 3 0 5 -2 5 -5z m180 -910 c0 -3
-2 -5 -5 -5 -3 0 -5 2 -5 5 0 3 2 5 5 5 3 0 5 -2 5 -5z M2186 4207 c-15 -156
-77 -747 -86 -821 -11 -84 -13 -152 -5 -145 4 5 12 74 40 369 8 85 24 234 34
330 11 96 23 202 26 235 3 33 10 64 15 69 14 14 12 23 -4 29 -10 4 -15 -11
-20 -66z M2403 4263 c93 -2 241 -2 330 0 89 1 14 3 -168 3 -181 0 -254 -2
-162 -3z M2913 4263 c4 -3 10 -3 14 0 3 4 0 7 -7 7 -7 0 -10 -3 -7 -7z M2759
4145 c-3 -2 -98 -5 -212 -5 -230 -1 -208 5 -212 -65 -1 -11 -4 -26 -9 -33 -4
-7 -7 -42 -7 -80 0 -37 -4 -80 -9 -97 -10 -34 -32 -232 -35 -315 -1 -30 -3
-57 -4 -60 -8 -18 -12 -56 -13 -134 -1 -51 -5 -81 -9 -70 -5 12 -8 -6 -8 -45
-1 -36 -5 -103 -10 -150 -25 -224 -29 -303 -23 -396 6 -82 10 -100 24 -103 15
-3 16 8 11 110 -4 93 7 227 61 748 36 350 66 641 66 648 0 14 396 18 417 4 21
-13 136 -1272 128 -1397 -6 -83 -4 -98 7 -87 20 20 15 250 -11 512 -26 264
-92 932 -95 974 -3 30 -41 58 -57 41z M2851 4104 c0 -11 3 -14 6 -6 3 7 2 16
-1 19 -3 4 -6 -2 -5 -13z M2850 4071 c0 -5 5 -13 10 -16 6 -3 10 -2 10 4 0 5
-4 13 -10 16 -5 3 -10 2 -10 -4z M2320 4055 c0 -3 2 -5 5 -5 3 0 5 2 5 5 0 3
-2 5 -5 5 -3 0 -5 -2 -5 -5z M2862 4010 c0 -19 2 -27 5 -17 2 9 2 25 0 35 -3
9 -5 1 -5 -18z M2873 3930 c0 -25 2 -35 4 -22 2 12 2 32 0 45 -2 12 -4 2 -4
-23z M2875 3868 c2 -7 9 -76 16 -153 6 -77 17 -196 25 -265 l13 -125 -5 105
c-3 58 -9 134 -14 170 -5 36 -12 113 -15 173 -4 59 -11 107 -16 107 -5 0 -7
-6 -4 -12z M3040 3465 c0 -3 2 -5 5 -5 3 0 5 2 5 5 0 3 -2 5 -5 5 -3 0 -5 -2
-5 -5z M2933 3280 c0 -25 2 -35 4 -22 2 12 2 32 0 45 -2 12 -4 2 -4 -23z
M2086 3208 c-16 -72 -42 -347 -32 -337 5 5 13 67 26 209 6 63 13 123 16 133 3
9 3 17 0 17 -3 0 -8 -10 -10 -22z M2943 3180 c0 -30 2 -43 4 -27 2 15 2 39 0
55 -2 15 -4 2 -4 -28z M2955 3060 c14 -206 17 -440 6 -471 -9 -27 -9 -31 1
-21 16 16 16 392 0 492 l-11 65 4 -65z M2047 2660 c3 -107 7 -197 9 -199 6 -7
2 186 -6 294 -5 67 -6 36 -3 -95z M2445 2692 c-82 -37 -159 -73 -170 -80 -28
-16 -1 -15 40 2 19 8 35 12 35 9 0 -3 8 1 18 10 10 10 22 14 25 10 4 -3 7 -2
7 4 0 9 48 32 70 34 3 0 11 5 18 11 6 6 12 7 12 2 0 -5 4 -4 8 2 4 7 24 19 44
27 32 14 37 14 42 1 3 -9 11 -12 16 -9 6 4 17 1 25 -5 8 -7 15 -9 15 -4 0 5 4
5 8 -1 4 -5 35 -23 69 -39 34 -16 59 -34 56 -39 -3 -6 -1 -7 4 -4 6 4 32 -4
58 -18 46 -23 72 -25 59 -4 -4 7 -302 160 -308 159 -1 0 -68 -31 -151 -68z
M2575 2690 c-3 -6 1 -7 9 -4 18 7 21 14 7 14 -6 0 -13 -4 -16 -10z M2470 2644
c-112 -50 -218 -105 -190 -98 14 4 63 25 110 47 47 22 104 48 128 58 23 10 42
21 42 24 0 9 -12 5 -90 -31z M2560 2571 c0 -6 -8 -11 -17 -11 -10 -1 -36 -12
-58 -25 -22 -14 -51 -30 -65 -36 -56 -24 -115 -54 -121 -63 -4 -5 -12 -7 -19
-4 -7 2 -23 -6 -35 -18 -20 -19 -23 -39 -33 -180 -19 -250 -20 -237 36 -270
38 -23 43 -29 27 -32 -21 -4 -75 -39 -86 -55 -3 -5 -9 -8 -13 -8 -19 3 -27 0
-21 -8 7 -12 -36 -5 -44 7 -3 5 -14 11 -23 15 -10 3 -18 14 -18 22 0 12 -6 15
-21 10 -20 -7 -20 -5 -16 178 4 170 3 185 -14 196 -26 15 -54 14 -69 -4 -7 -8
-16 -13 -20 -10 -5 3 -12 0 -15 -6 -4 -5 -12 -8 -19 -6 -6 2 -24 -4 -41 -14
-16 -10 -37 -22 -45 -25 -41 -19 -81 -33 -84 -31 -2 1 -13 -7 -25 -17 -12 -11
-21 -16 -21 -12 0 4 -12 1 -27 -8 -16 -8 -43 -20 -60 -26 -18 -7 -33 -16 -33
-21 0 -5 -6 -6 -13 -3 -14 5 -102 -40 -113 -57 -3 -6 1 -18 9 -27 8 -9 22 -33
30 -52 8 -19 26 -48 41 -63 14 -15 26 -32 26 -38 0 -5 5 -9 12 -9 6 0 8 -3 5
-7 -4 -3 2 -12 13 -20 11 -8 20 -20 20 -27 0 -8 7 -19 15 -26 8 -7 12 -17 8
-23 -3 -6 -1 -7 5 -3 7 4 12 1 12 -6 0 -7 16 -30 36 -51 20 -21 34 -40 31 -43
-3 -3 10 -21 29 -39 19 -19 34 -38 34 -42 -1 -5 6 -9 14 -11 32 -7 13 24 -140
236 -86 119 -158 221 -160 227 -2 5 17 19 43 29 27 11 147 63 268 117 121 53
224 95 229 92 5 -3 5 -84 1 -189 l-7 -183 71 -35 c85 -43 82 -43 137 -5 25 17
65 39 89 50 25 11 45 24 45 30 0 5 -25 22 -56 37 l-57 27 7 110 c3 61 6 146 6
191 l0 80 167 80 c92 43 172 79 178 79 5 0 79 -36 163 -80 l152 -80 0 -110 c0
-60 3 -146 6 -190 l6 -80 -48 -25 c-62 -33 -64 -44 -12 -71 24 -12 59 -35 79
-50 46 -36 48 -36 126 7 l65 37 -7 182 c-4 103 -4 184 1 187 5 3 119 -48 254
-113 135 -65 248 -119 253 -119 4 0 7 9 7 21 0 11 -4 17 -10 14 -5 -3 -10 -1
-10 4 0 6 -12 11 -26 11 -14 0 -23 4 -19 10 4 6 -5 10 -19 10 -14 0 -26 5 -26
10 0 6 -5 10 -11 10 -20 0 -144 63 -152 77 -5 8 -16 11 -28 8 -11 -4 -19 -2
-19 4 0 6 -7 11 -16 11 -8 0 -22 7 -30 15 -8 8 -22 11 -31 8 -11 -4 -14 -3 -9
5 5 8 0 12 -13 12 -12 0 -21 3 -21 8 0 4 -18 13 -40 20 -41 12 -78 2 -81 -23
-5 -45 4 -232 12 -239 12 -13 12 -66 -1 -66 -5 0 -10 -5 -10 -11 0 -5 5 -7 10
-4 6 4 10 -6 10 -22 0 -19 -3 -24 -9 -14 -6 9 -11 10 -15 2 -8 -12 -83 -51
-99 -51 -4 0 -15 6 -22 13 -8 6 -22 18 -30 26 -15 12 -13 15 15 33 18 10 30
21 27 24 -3 3 -17 -2 -31 -11 -24 -16 -74 -18 -68 -2 1 4 5 7 8 6 3 -1 19 11
34 26 27 26 28 32 25 94 -2 36 -5 124 -6 196 -3 127 -4 131 -30 152 -15 13
-32 23 -38 23 -13 0 -47 18 -75 40 -11 9 -16 10 -12 3 5 -9 2 -11 -8 -7 -9 3
-14 11 -13 17 1 7 -9 11 -23 10 -14 -1 -19 0 -12 3 17 7 -59 44 -101 49 -16 2
-35 9 -43 16 -10 8 -14 8 -14 0z m320 -146 c0 -3 -2 -5 -5 -5 -3 0 -5 2 -5 5
0 3 2 5 5 5 3 0 5 -2 5 -5z m-1225 -695 c3 -5 4 -10 1 -10 -3 0 -8 5 -11 10
-3 6 -4 10 -1 10 3 0 8 -4 11 -10z M2040 2445 c0 -3 2 -5 5 -5 3 0 5 2 5 5 0
3 -2 5 -5 5 -3 0 -5 -2 -5 -5z M1960 2408 c-25 -11 -72 -33 -105 -48 -33 -15
-78 -36 -100 -45 -103 -44 -135 -60 -135 -68 0 -5 16 0 36 12 19 12 41 21 48
21 7 0 44 16 82 35 37 19 73 35 80 35 6 0 17 7 24 15 7 8 15 13 19 11 3 -2 33
9 66 25 68 32 54 39 -15 7z M2967 2182 c2 -97 6 -184 8 -192 2 -8 3 67 3 167
-1 100 -4 187 -8 192 -3 6 -5 -69 -3 -167z M2074 2105 c0 -88 2 -123 3 -77 2
46 2 118 0 160 -1 42 -3 5 -3 -83z M1525 2215 c-38 -19 -65 -34 -60 -35 18 0
135 53 135 62 0 10 7 13 -75 -27z M3540 2115 c0 -3 2 -5 5 -5 3 0 5 2 5 5 0 3
-2 5 -5 5 -3 0 -5 -2 -5 -5z M3476 1800 c-77 -116 -137 -213 -134 -215 3 -3
17 10 31 28 14 19 23 37 20 41 -4 3 -1 6 5 6 5 0 21 17 33 38 13 20 26 39 30
42 3 3 21 31 39 63 17 31 36 57 41 57 5 0 9 5 9 11 0 6 8 23 18 37 38 55 63
102 55 102 -4 0 -71 -95 -147 -210z M3671 2002 c-1 -7 -30 -55 -66 -107 -36
-51 -65 -98 -65 -103 0 -6 -4 -12 -8 -14 -12 -5 -154 -218 -145 -218 7 1 124
163 158 219 6 9 38 60 73 114 35 53 61 103 59 110 -4 9 -6 9 -6 -1z M1340
1935 c0 -3 2 -5 5 -5 3 0 5 2 5 5 0 3 -2 5 -5 5 -3 0 -5 -2 -5 -5z M2452 1905
c-72 -16 -199 -81 -257 -131 -36 -32 -33 -31 26 9 139 93 219 118 373 115 l91
-1 -110 -7 c-263 -18 -462 -170 -535 -408 -11 -35 -20 -81 -20 -102 0 -57 -18
-59 -23 -3 -3 48 -3 48 -5 -9 l-2 -58 200 0 200 0 0 33 c0 137 120 239 241
207 84 -23 149 -114 149 -208 l0 -32 183 2 182 3 3 33 c12 118 -66 302 -173
407 -146 144 -319 194 -523 150z m248 -20 c0 -3 -2 -5 -5 -5 -3 0 -5 2 -5 5 0
3 2 5 5 5 3 0 5 -2 5 -5z m40 -26 c28 -14 55 -22 66 -20 19 3 67 -26 52 -32
-9 -4 -8 -6 3 -6 21 -1 90 -56 82 -65 -3 -3 0 -6 8 -6 8 0 27 -17 43 -37 16
-20 23 -33 15 -29 -8 4 -4 -1 8 -11 28 -24 67 -113 87 -201 28 -122 38 -113
-126 -110 l-143 3 -7 48 c-13 93 -121 186 -223 195 -122 10 -245 -103 -245
-224 l0 -24 -159 0 -160 0 6 38 c3 20 15 69 26 107 12 39 21 76 20 82 0 7 3
10 8 7 5 -3 9 -1 9 4 0 16 80 117 91 115 5 -2 9 4 9 12 0 8 5 15 10 15 6 0 24
13 39 29 16 16 31 27 34 24 3 -3 16 4 28 16 13 12 29 21 36 21 7 0 13 4 13 8
0 4 12 9 27 10 15 1 29 6 32 11 3 4 13 9 21 9 8 1 35 6 60 11 52 11 208 11
230 0z m54 -432 c18 -55 20 -83 6 -92 -6 -4 -10 7 -10 27 0 18 -7 55 -15 83
-19 62 -3 47 19 -18z M2825 1810 c3 -5 8 -10 11 -10 3 0 2 5 -1 10 -3 6 -8 10
-11 10 -3 0 -2 -4 1 -10z M2890 1775 c0 -3 2 -5 5 -5 3 0 5 2 5 5 0 3 -2 5 -5
5 -3 0 -5 -2 -5 -5z M2930 1905 c0 -3 2 -5 5 -5 3 0 5 2 5 5 0 3 -2 5 -5 5 -3
0 -5 -2 -5 -5z M2150 1725 c0 -3 2 -5 5 -5 3 0 5 2 5 5 0 3 -2 5 -5 5 -3 0 -5
-2 -5 -5z M2105 1679 c-26 -31 -75 -121 -75 -136 0 -4 16 21 35 56 19 35 44
75 57 88 12 12 19 23 16 23 -4 0 -18 -14 -33 -31z M1910 1575 c0 -3 2 -5 5 -5
3 0 5 2 5 5 0 3 -2 5 -5 5 -3 0 -5 -2 -5 -5z M3530 1575 c0 -3 2 -5 5 -5 3 0
5 2 5 5 0 3 -2 5 -5 5 -3 0 -5 -2 -5 -5z M1851 1549 c-18 -11 -30 -23 -26 -27
4 -4 10 -1 12 6 3 6 8 10 13 7 4 -2 18 4 30 15 30 26 14 26 -29 -1z M3210
1560 c0 -7 3 -10 7 -7 3 4 3 10 0 14 -4 3 -7 0 -7 -7z M3370 1540 c0 -7 3 -10
7 -7 3 4 3 10 0 14 -4 3 -7 0 -7 -7z M3221 1530 c1 -8 5 -26 9 -40 l8 -25 1
25 c0 14 -4 32 -9 40 -9 13 -10 13 -9 0z M2020 1520 c0 -7 3 -10 7 -7 3 4 3
10 0 14 -4 3 -7 0 -7 -7z M2005 1470 c-4 -17 -5 -34 -2 -36 2 -3 7 10 11 27 3
18 4 34 2 36 -2 3 -7 -10 -11 -27z M1460 1221 c-6 -12 -10 -106 -10 -236 0
-130 4 -224 10 -236 10 -19 33 -19 1093 -19 829 0 1086 3 1095 12 17 17 17
469 0 486 -9 9 -266 12 -1095 12 -1060 0 -1083 0 -1093 -19z m2170 -231 l0
-230 -1074 1 -1074 1 -6 45 c-10 75 -7 361 4 368 6 3 10 12 10 18 0 7 -4 6
-10 -3 -5 -8 -10 -10 -10 -4 0 33 10 34 1092 34 l1068 0 0 -230z M1588 1119
c-14 -8 -18 -23 -18 -69 0 -60 0 -60 41 -80 37 -19 40 -24 37 -57 -3 -41 -26
-56 -35 -24 -8 30 -43 28 -43 -2 0 -33 18 -47 62 -47 43 0 58 19 58 75 0 48
-13 70 -50 85 -26 11 -30 17 -30 51 0 32 3 39 20 39 13 0 20 -7 20 -20 0 -13
7 -20 20 -20 24 0 26 26 4 58 -16 24 -56 29 -86 11z M1728 985 c-3 -145 -3
-145 20 -145 22 0 22 0 20 145 -2 130 -4 145 -20 145 -15 0 -17 -15 -20 -145z
M1810 985 l0 -146 58 3 57 3 3 126 c3 148 -2 159 -74 159 l-44 0 0 -145z m80
-5 c0 -103 -1 -110 -20 -110 -19 0 -20 7 -20 110 0 103 1 110 20 110 19 0 20
-7 20 -110z M1970 985 l0 -145 50 0 c42 0 50 3 50 18 0 15 -6 18 -30 14 -30
-4 -30 -4 -30 47 0 50 1 51 29 51 24 0 28 3 24 20 -4 15 -11 18 -29 14 -23 -6
-24 -4 -24 40 0 44 1 46 30 46 23 0 30 4 30 20 0 17 -7 20 -50 20 l-50 0 0
-145z M2103 985 c-1 -136 1 -145 18 -145 17 0 19 8 19 60 0 44 4 60 14 60 8 0
18 -22 25 -60 10 -49 16 -60 32 -60 10 0 19 1 19 3 0 1 -7 27 -15 57 -9 35
-11 58 -5 64 14 14 12 140 -2 154 -7 7 -33 12 -58 12 l-46 0 -1 -145z m82 55
c0 -39 -3 -45 -22 -48 -21 -3 -23 0 -23 48 0 48 2 51 23 48 19 -3 22 -9 22
-48z M2340 986 l0 -146 50 0 c38 0 50 4 50 15 0 10 -10 15 -29 15 -28 0 -29 2
-33 50 -3 49 -2 50 25 50 22 0 28 4 25 18 -2 11 -11 16 -26 14 -20 -3 -22 1
-22 42 0 44 1 46 29 46 22 0 29 4 27 18 -2 13 -14 18 -49 20 l-47 3 0 -145z
M2470 985 l0 -145 45 0 c33 0 45 4 45 15 0 9 -9 15 -25 15 l-25 0 0 130 c0
123 -1 130 -20 130 -19 0 -20 -7 -20 -145z M2660 985 c0 -138 1 -145 20 -145
18 0 20 7 20 65 0 63 1 65 25 65 24 0 25 -2 25 -65 0 -58 2 -65 20 -65 19 0
20 7 20 145 0 138 -1 145 -20 145 -18 0 -20 -7 -20 -65 0 -63 -1 -65 -25 -65
-24 0 -25 2 -25 65 0 58 -2 65 -20 65 -19 0 -20 -7 -20 -145z M2848 1119 c-16
-9 -18 -27 -18 -144 0 -128 1 -135 20 -135 18 0 20 7 20 55 0 48 2 55 20 55
18 0 20 -7 20 -55 0 -48 2 -55 20 -55 19 0 20 7 20 135 0 123 -2 135 -19 145
-25 13 -61 12 -83 -1z m62 -84 c0 -48 -2 -55 -20 -55 -18 0 -20 7 -20 55 0 48
2 55 20 55 18 0 20 -7 20 -55z M2990 985 l0 -145 54 0 c30 0 57 4 60 9 3 5 6
64 7 132 1 141 -3 149 -78 149 l-43 0 0 -145z m85 -5 c0 -101 -1 -105 -22
-108 -23 -3 -23 -2 -23 108 0 110 0 111 23 108 21 -3 22 -7 22 -108z M3188
1003 c-3 -124 -4 -128 -25 -131 -13 -2 -23 -10 -23 -18 0 -18 65 -19 76 -2 5
7 8 72 9 145 1 120 -1 133 -17 133 -16 0 -18 -14 -20 -127z M3288 1119 c-16
-9 -18 -27 -18 -144 0 -130 1 -135 21 -135 18 0 20 5 18 53 -3 47 -1 52 19 55
20 3 22 -1 22 -52 0 -49 2 -56 20 -56 19 0 20 7 20 135 0 123 -2 135 -19 145
-25 13 -61 12 -83 -1z m62 -84 c0 -50 -2 -55 -22 -55 -22 0 -23 4 -20 55 3 46
7 55 23 55 16 0 19 -8 19 -55z M3430 985 c0 -138 1 -145 20 -145 18 0 20 7 20
61 0 77 20 76 35 -2 8 -44 14 -55 32 -57 21 -3 21 -3 7 54 -11 40 -12 60 -5
67 15 15 14 140 -1 155 -7 7 -34 12 -60 12 l-48 0 0 -145z m80 55 c0 -43 -3
-50 -20 -50 -17 0 -20 7 -20 50 0 43 3 50 20 50 17 0 20 -7 20 -50z"/>
</g>
</svg>
